# AST/ASF file generated using VICON BodyLanguage
# -----------------------------------------------
:version 1.10
:name VICON
:units
  mass 1.0
  length 0.45
  angle deg
:documentation
   .ast/.asf automatically generated from VICON data using
   VICON BodyBuilder and BodyLanguage model FoxedUp or BRILLIANT.MOD
:root
   order TX TY TZ RX RY RZ
   axis XYZ
   position 0 0 0  
   orientation 0 0 0 
:bonedata
  begin
     id 1 
     name lhipjoint
     direction 0.631061 -0.684803 0.364427 
     length 2.59943 
     axis 0 0 0  XYZ
  end
  begin
     id 2 
     name lfemur
     direction 0.34202 -0.939693 0  
     length 6.69088  
     axis 0 0 20  XYZ
    dof rx ry rz
    limits (-160.0 20.0)
           (-70.0 70.0)
           (-60.0 70.0)
  end
  begin
     id 3 
     name ltibia
     direction 0.34202 -0.939693 0   
     length 7.83506   
     axis 0 0 20   XYZ
    dof rx
    limits (-10.0 170.0)
  end
  begin
     id 4 
     name lfoot
     direction 0.176279 -0.484322 0.856947   
     length 2.95235   
     axis -90 7.62852e-016 20   XYZ
    dof rx rz
    limits (-45.0 90.0)
           (-70.0 20.0)
  end
  begin
     id 5 
     name ltoes
     direction 1.53551e-011 -4.21828e-011 1   
     length 1.41888   
     axis -90 7.62852e-016 20   XYZ
    dof rx
    limits (-90.0 20.0)
  end
  begin
     id 6 
     name rhipjoint
     direction -0.641155 -0.677457 0.360518   
     length 2.62761  
     axis 0 0 0  XYZ 
  end
  begin
     id 7 
     name rfemur
     direction -0.34202 -0.939693 0   
     length 6.52283   
     axis 0 0 -20   XYZ
    dof rx ry rz
    limits (-160.0 20.0)
           (-70.0 70.0)
           (-70.0 60.0)
  end
  begin
     id 8 
     name rtibia
     direction -0.34202 -0.939693 0   
     length 7.74138   
     axis 0 0 -20   XYZ
    dof rx
    limits (-10.0 170.0)
 end
 begin
     id 9 
     name rfoot
     direction -0.186474 -0.512334 0.838297   
     length 2.72941  
     axis -90 -7.62852e-016 -20   XYZ
    dof rx rz
    limits (-45.0 90.0)
           (-20.0 70.0)
  end
  begin
     id 10 
     name rtoes
     direction -1.53683e-011 -4.22007e-011 1   
     length 1.30521   
     axis -90 -7.62852e-016 -20   XYZ
    dof rx
    limits (-90.0 20.0)
  end
  begin
     id 11 
     name lowerback
     direction -0.0121201 0.985605 -0.168631   
     length 2.60975   
     axis 0 0 0   XYZ
    dof rx ry rz
    limits (-20.0 45.0)
           (-30.0 30.0)
           (-30.0 30.0)
  end
  begin
     id 12 
     name upperback
     direction -0.019495 0.999568 -0.0220039   
     length 2.65091   
     axis 0 0 0   XYZ
    dof rx ry rz
    limits (-20.0 45.0)
           (-30.0 30.0)
           (-30.0 30.0)
  end
  begin
     id 13 
     name thorax
     direction -0.0125765 0.998661 0.0501718   
     length 2.70267   
     axis 0 0 0   XYZ
    dof rx ry rz
    limits (-20.0 45.0)
           (-30.0 30.0)
           (-30.0 30.0)
  end
  begin
     id 14 
     name lowerneck
     direction -0.0309438 0.997491 -0.0636732   
     length 1.56498   
     axis 0 0 0   XYZ
    dof rx ry rz
    limits (-20.0 45.0)
           (-30.0 30.0)
           (-30.0 30.0)
  end
  begin
     id 15 
     name upperneck
     direction -0.00130017 0.992397 -0.123074   
     length 1.5414   
     axis 0 0 0   XYZ
    dof rx ry rz
    limits (-20.0 45.0)
           (-30.0 30.0)
           (-30.0 30.0)
  end
  begin
     id 16
     name head
     direction 0.00242507 0.999315 -0.0369171  
     length 1.60129  
     axis 0 0 0   XYZ
    dof rx ry rz
    limits (-20.0 45.0)
           (-30.0 30.0)
           (-30.0 30.0)
  end
  begin
     id 17 
     name lclavicle
     direction 0.996744 0.0363396 -0.0719802  
     length 4.63989  
     axis 0 0 0   XYZ
    dof ry rz
    limits (-20.0 10.0)
           (0.0 20.0)
  end
  begin
     id 18 
     name lhumerus
     direction 1 -4.49035e-011 -2.38432e-027   
     length 4.58161   
     axis 180 -30 -90   XYZ
    dof rx ry rz
    limits (-60.0 90.0)
           (-90.0 90.0)
           (-90.0 90.0)
  end
  begin
     id 19
     name lradius
     direction 1 0.000357117 -0.000206182   
     length 3.43782   
     axis 180 -30 -90   XYZ
    dof rx
    limits (-10.0 170.0)
  end
  begin
     id 20
     name lwrist
     direction 1 -7.34592e-005 -0.000404398   
     length 1.71891   
     axis 7.40711e-015 90 90   XYZ
    dof ry
    limits (-180.0 0.0)
 end
  begin
     id 21 
     name lhand
     direction 1 -4.48735e-011 -2.22254e-026   
     length 1.04662   
     axis 1.41817e-014 90 90   XYZ
    dof rx rz
    limits (-90.0 90.0)
           (-45.0 45.0)
  end
  begin
     id 22 
     name lfingers
     direction 1 -4.49414e-011 -4.44507e-026   
     length 0.843814   
     axis 2.83634e-014 90 90   XYZ
    dof rx
    limits (0.0 90.0)
  end
  begin
     id 23
     name lthumb
     direction 0.707107 -6.3482e-011 0.707107   
     length 1.21155   
     axis -90 45 2.85299e-015   XYZ
    dof rx rz
    limits (-45.0 45.0)
           (-45.0 45.0)
  end
  begin
     id 24 
     name rclavicle
     direction -0.997328 0.0105626 0.0722925   
     length 4.0272  
     axis 0 0 0   XYZ 
    dof ry rz
    limits (-10.0 20.0)
           (-20.0 0.0)
  end
  begin
     id 25 
     name rhumerus
     direction -1 -4.48913e-011 -1.83378e-027  
     length 4.53415   
     axis 180 30 90   XYZ
    dof rx ry rz
    limits (-90.0 60.0)
           (-90.0 90.0)
           (-90.0 90.0)
  end
  begin
     id 26 
     name rradius
     direction -0.999999 0.00120542 -0.000695951   
     length 3.33298   
     axis 180 30 90   XYZ
    dof rx
    limits (-10.0 170.0)
  end
  begin
     id 27 
     name rwrist
     direction -0.999999 0.000362235 -0.0013361   
     length 1.66649   
     axis 7.40711e-015 -90 -90   XYZ
    dof ry
    limits (-180.0 0.0)
  end
  begin
     id 28
     name rhand
     direction -1 -4.49379e-011 -2.22254e-026   
     length 1.21477   
     axis 1.41817e-014 -90 -90   XYZ
    dof rx rz
    limits (-90.0 90.0)
           (-45.0 45.0)
  end
  begin
     id 29
     name rfingers
     direction -1 -4.48656e-011 -4.44507e-026   
     length 0.979378   
     axis 2.83634e-014 -90 -90   XYZ
    dof rx
    limits (0.0 90.0)
  end
  begin
     id 30
     name rthumb
     direction -0.707107 -6.35052e-011 0.707107   
     length 1.4062   
     axis -90 -45 -2.85299e-015   XYZ
    dof rx rz
    limits (-45.0 45.0)
           (-45.0 45.0)
  end
:hierarchy
  begin
    root lhipjoint rhipjoint lowerback
    lhipjoint lfemur
    lfemur ltibia
    ltibia lfoot
    lfoot ltoes
    rhipjoint rfemur
    rfemur rtibia
    rtibia rfoot
    rfoot rtoes
    lowerback upperback
    upperback thorax
    thorax lowerneck lclavicle rclavicle
    lowerneck upperneck
    upperneck head
    lclavicle lhumerus
    lhumerus lradius
    lradius lwrist
    lwrist lhand lthumb
    lhand lfingers
    rclavicle rhumerus
    rhumerus rradius
    rradius rwrist
    rwrist rhand rthumb
    rhand rfingers
  end

#!OML:ASF X:\für Bonn\!DataBase\2005_08_12_Daniel\c3d\Daniel.ASF
:FULLY-SPECIFIED
:DEGREES
119
root 2.67062 17.5762 -1.06255 65.2189 -85.96 -71.6148
lowerback 9.22882 -1.39494 2.09445
upperback 2.42583 -1.73214 -0.186693
thorax -2.72075 -0.900167 -1.17096
lowerneck 1.16572 0.723177 -3.32049
upperneck 10.9349 0.66275 1.77999
head 3.29562 0.168303 1.16764
rclavicle -1.45858e-014 6.36111e-015
rhumerus -21.6136 -18.5553 -22.9871
rradius 30.0616
rwrist 9.91798
rhand -35.6568 23.8442
rfingers 7.12502
rthumb -8.77859 -5.95323
lclavicle -1.45858e-014 6.36111e-015
lhumerus -22.9903 39.2363 10.2961
lradius 30.5309
lwrist -8.14958
lhand -4.12162 -3.05653
lfingers 7.12502
lthumb 21.6372 25.7545
rfemur -0.957246 8.49683 19.2167
rtibia 25.3473
rfoot -17.6714 -4.99365
rtoes -15.6287
lfemur -2.72551 -11.0036 -16.3578
ltibia 35.8357
lfoot -26.3222 8.22151
ltoes -16.5091
120
root 2.70235 17.5771 -1.04786 66.0608 -85.9599 -72.4659
lowerback 9.44677 -1.41584 2.04758
upperback 2.46594 -1.76236 -0.193078
thorax -2.79955 -0.91642 -1.14299
lowerneck 1.05686 0.694708 -3.29875
upperneck 11.0902 0.616297 1.85652
head 3.37137 0.146564 1.19038
rclavicle -4.12478e-015 -6.36111e-015
rhumerus -23.0854 -18.0706 -23.9767
rradius 32.4009
rwrist 8.94523
rhand -36.4737 25.0872
rfingers 7.12502
rthumb -9.56685 -4.67561
lclavicle -4.12478e-015 -6.36111e-015
lhumerus -24.3568 37.6078 11.4245
lradius 33.4737
lwrist -5.47876
lhand -3.67049 -3.29365
lfingers 7.12502
lthumb 22.0704 25.4669
rfemur -1.20684 8.26011 19.095
rtibia 25.503
rfoot -17.4516 -4.70882
rtoes -15.5828
lfemur -2.80541 -11.0503 -16.393
ltibia 35.818
lfoot -26.2488 8.29991
ltoes -16.3187
121
root 2.73469 17.5784 -1.03366 67.1304 -85.9683 -73.5247
lowerback 9.66846 -1.44472 1.96678
upperback 2.48911 -1.80546 -0.181438
thorax -2.89675 -0.938953 -1.07521
lowerneck 0.962098 0.675866 -3.25781
upperneck 11.2422 0.586779 1.87305
head 3.44295 0.131805 1.19018
rclavicle 1.24489e-014 0
rhumerus -24.5564 -17.6287 -25.077
rradius 34.8583
rwrist 7.88334
rhand -37.2216 26.2469
rfingers 7.12502
rthumb -10.2885 -3.48142
lclavicle 1.24489e-014 0
lhumerus -25.8847 36.0037 12.5512
lradius 36.6532
lwrist -2.88562
lhand -3.32135 -3.56933
lfingers 7.12502
lthumb 22.4055 25.1512
rfemur -1.48923 8.06938 18.9692
rtibia 25.6533
rfoot -17.2259 -4.4388
rtoes -15.4606
lfemur -2.91322 -11.0481 -16.4155
ltibia 35.8056
lfoot -26.1737 8.34869
ltoes -16.2745
122
root 2.76779 17.5809 -1.01919 68.0233 -85.9831 -74.411
lowerback 9.90078 -1.48212 1.86672
upperback 2.52163 -1.86249 -0.172264
thorax -2.98983 -0.968283 -0.997026
lowerneck 0.797357 0.656221 -3.22174
upperneck 11.4574 0.557368 1.88689
head 3.55016 0.116322 1.19113
rclavicle 1.9133e-015 3.97569e-015
rhumerus -26.0573 -17.06 -26.3091
rradius 37.3868
rwrist 6.58958
rhand -38.0019 27.3521
rfingers 7.12502
rthumb -11.0411 -2.33746
lclavicle 1.9133e-015 3.97569e-015
lhumerus -27.6343 34.6227 13.7092
lradius 40.1632
lwrist -0.589994
lhand -3.1435 -3.78618
lfingers 7.12502
lthumb 22.5762 24.9137
rfemur -1.76776 7.86239 18.8372
rtibia 25.8107
rfoot -16.9836 -4.18174
rtoes -15.4226
lfemur -3.01635 -11.0375 -16.4465
ltibia 35.7907
lfoot -26.1123 8.39732
ltoes -16.2287
123
root 2.80042 17.582 -1.00434 69.1824 -85.9738 -75.5623
lowerback 10.1044 -1.50879 1.77287
upperback 2.57258 -1.9058 -0.147579
thorax -3.04689 -0.990598 -0.908726
lowerneck 0.669576 0.635749 -3.15611
upperneck 11.6063 0.526966 1.89693
head 3.62746 0.102549 1.18456
rclavicle 6.21202e-015 1.47101e-014
rhumerus -27.6434 -16.4543 -27.6144
rradius 39.9838
rwrist 5.22947
rhand -38.7855 28.3415
rfingers 7.12502
rthumb -11.7968 -1.30621
lclavicle 6.21202e-015 1.47101e-014
lhumerus -29.6201 33.673 14.9535
lradius 43.9973
lwrist 1.2443
lhand -3.02247 -3.97227
lfingers 7.12502
lthumb 22.6924 24.7135
rfemur -2.04868 7.67472 18.7316
rtibia 25.9601
rfoot -16.7559 -3.93502
rtoes -15.3259
lfemur -3.12583 -11.0459 -16.4557
ltibia 35.7842
lfoot -26.039 8.45556
ltoes -16.1824
